<svg xmlns="http://www.w3.org/2000/svg" width="109.67" height="69.86"><defs><style>.a{fill:#0c1a6f}.d{fill:#fff}</style></defs><path class="a" d="M4.2 57.99a4.48 4.48 0 0 1-1 .62v.08h1.64v.3H3.2v.76a.29.29 0 0 1-.32.3h-.72l-.07-.33h.65c.12 0 .13-.03.13-.12V59H1.17v-.3h1.7v-.33h.16a2.32 2.32 0 0 0 .64-.36H1.81v-.29h2.4Zm-.38-.9a5.62 5.62 0 0 0 .3-.63l.34.11a4.1 4.1 0 0 1-.28.52h.58v.85h-.33v-.56H1.6v.56h-.33v-.85h.58a2.2 2.2 0 0 0-.28-.5l.3-.12a2.1 2.1 0 0 1 .3.55l-.2.07Zm-.87 0a3.3 3.3 0 0 0-.3-.54l.3-.12a2.95 2.95 0 0 1 .3.56ZM6.39 58.78a3.52 3.52 0 0 1-.39-.63v1.9h-.3v-1.89a3.08 3.08 0 0 1-.49 1l-.12-.39a3.36 3.36 0 0 0 .58-1.25h-.54v-.29h.56v-.75H6v.75h.46v.29H6v.19a2.61 2.61 0 0 0 .55.78Zm-.09.97a2.94 2.94 0 0 0 1.08-.54 2.75 2.75 0 0 1-.55-1l.3-.1a2.4 2.4 0 0 0 .47.88 2.47 2.47 0 0 0 .5-.88l.3.1a3.04 3.04 0 0 1-.58 1 2.66 2.66 0 0 0 1.07.53l-.17.31a2.96 2.96 0 0 1-1.12-.62 3.3 3.3 0 0 1-1.13.62Zm.1-1.8a2.15 2.15 0 0 0 .7-.64l.26.15a2.23 2.23 0 0 1-.73.72Zm1.39-1.47v.42H8.8v.29H6.47v-.29h.99v-.42Zm.87 1.7a3.09 3.09 0 0 1-.78-.73l.26-.15a2.88 2.88 0 0 0 .73.63ZM9.04 59.74a5.26 5.26 0 0 0 .76-1.27l.27.2a6.63 6.63 0 0 1-.8 1.37Zm.66-1.54a2.25 2.25 0 0 0-.65-.41l.16-.27a2.46 2.46 0 0 1 .7.4Zm.19-1.02a2.58 2.58 0 0 0-.68-.42l.18-.26a3.06 3.06 0 0 1 .7.4Zm2.07 1.53a5.36 5.36 0 0 1 .8 1.21l-.3.16a2.7 2.7 0 0 0-.16-.33 15.6 15.6 0 0 1-2.2.18l-.06-.31h.3a6.57 6.57 0 0 0 .57-1.25h-.81v-.3h1.15v-.72h-.99v-.3h1v-.58h.33v.58h1.03v.3H11.6v.72h1.17v.3H11.3a10.66 10.66 0 0 1-.58 1.24c.38-.02 1-.05 1.44-.1a4.92 4.92 0 0 0-.46-.64ZM15.08 56.48v.47a3.56 3.56 0 0 0 .39 1.58 2.87 2.87 0 0 0 1.33 1.2l-.24.3a3.07 3.07 0 0 1-1.65-2.15 2.94 2.94 0 0 1-1.7 2.14l-.22-.3a2.71 2.71 0 0 0 1.42-1.33 4.34 4.34 0 0 0 .31-1.46v-.46ZM18.28 59.74a3.91 3.91 0 0 0 .77-1.28l.27.19a5.6 5.6 0 0 1-.81 1.38Zm.66-1.56a2.52 2.52 0 0 0-.65-.4l.17-.27a2.37 2.37 0 0 1 .67.4Zm.2-1.01a3.05 3.05 0 0 0-.66-.42l.18-.26a3.25 3.25 0 0 1 .69.4ZM22 56.9h-.3v2.8c0 .18-.04.33-.32.33h-.66l-.06-.32h.6c.07 0 .11 0 .11-.1v-2.7h-1.96v-.3h2.6Zm-1.05 2.17h-1.38v-1.7h1.38Zm-.32-1.42h-.75v1.14h.75ZM25.14 57.85h-2.01v-.28a4.79 4.79 0 0 1-.7.35l-.2-.32a3.5 3.5 0 0 0 1.72-1.17h.33a3.98 3.98 0 0 0 1.73 1.17l-.19.32a4.26 4.26 0 0 1-.68-.35Zm.4.43v1.76h-.33v-.18h-2.17v.18h-.33v-1.76Zm-.33.3h-2.17v1h2.17Zm-.09-1.02a4.65 4.65 0 0 1-1-.86 3.69 3.69 0 0 1-.98.86ZM28.95 58.44l-.28-.25a1.93 1.93 0 0 1-.56.76h.06v.19h1.37v.25h-1.37v.3h1.67v.25h-3.68v-.26h1.7v-.29h-1.4v-.25h1.4v-.19h.25l-.27-.2a1.49 1.49 0 0 0 .59-.73l-.4-.26.14-.24.34.2.08-.52h-.46v-.28h.48v-.44h.3v.44h.63a9.41 9.41 0 0 0-.08 1.07c0 .1.01.58.1.58.07 0 .1-.26.12-.45l.21.12c-.03.23-.1.73-.35.73-.3 0-.37-.36-.37-1.03 0-.34.02-.6.03-.75h-.32a3.75 3.75 0 0 1-.11.7 3.64 3.64 0 0 1 .36.32Zm-.92.01-.72.08v.27c0 .1 0 .22-.25.22h-.34l-.08-.25h.31c.08 0 .08-.02.08-.1v-.11l-.83.06-.02-.25c.33 0 .6-.02.85-.04v-.2h.12a2.1 2.1 0 0 0 .31-.13H26.3v-.2h1.62v.18a3.7 3.7 0 0 1-.6.29v.04l.71-.07Zm-1.01-1.8v-.17h.31v.17h.8v.23H26.2v-.23Zm.9.39v.6h-1.5v-.6Zm-.29.18h-.93v.23h.93ZM33.14 57.99a4.44 4.44 0 0 1-1 .62v.08h1.64v.3h-1.65v.76a.29.29 0 0 1-.32.3h-.72l-.07-.33h.65c.12 0 .13-.03.13-.12V59h-1.69v-.3h1.7v-.33h.16a2.34 2.34 0 0 0 .64-.36h-1.86v-.29h2.4Zm-.38-.9a5.63 5.63 0 0 0 .3-.63l.34.11a3.98 3.98 0 0 1-.28.52h.58v.85h-.33v-.56h-2.84v.56h-.32v-.85h.57a2.2 2.2 0 0 0-.27-.5l.3-.12a2.08 2.08 0 0 1 .3.55l-.2.07Zm-.87 0a3.17 3.17 0 0 0-.3-.54l.3-.12a3 3 0 0 1 .3.56ZM37.47 60.04h-.31v-.16h-2.7v.16h-.3v-3.43h3.31Zm-.31-3.17h-2.7v2.73h2.7Zm-.2 1.83a2.06 2.06 0 0 1-.4.36 2.9 2.9 0 0 0 .48.2l-.16.24a2.92 2.92 0 0 1-.97-.62v.63h-.29v-.65a2.85 2.85 0 0 1-.9.56l-.13-.26a2.73 2.73 0 0 0 .98-.55h-.77v-.68h2.03v.68h-.02Zm-.1-1.39h-.9v.22h1.06v.2H34.6v-.2h1.06v-.22h-.9v-.2h.9v-.18h.3v.17h.91Zm-.33.83h-1.44v.26h1.44Zm-.58.47a2.5 2.5 0 0 0 .4.32 2.2 2.2 0 0 0 .34-.32ZM8.75 62.53v6.32H1.83v-.79h6v-4.74H1.9v-.8ZM15.14 64.34a10.48 10.48 0 0 0-2.87-1.33l.42-.73a12.66 12.66 0 0 1 2.98 1.27Zm-2.82 4.07c2.63-.18 5.55-.96 7.01-5.52l.84.36c-.75 2.09-1.96 5.48-7.53 6.06ZM24.3 62.02v2.93a18.8 18.8 0 0 0 4.83-1.73l.57.7a23.21 23.21 0 0 1-5.4 1.84v2.03c0 .5 0 .68.76.68h3.59a11.32 11.32 0 0 0 1.56-.14l.05.85a15.56 15.56 0 0 1-1.6.11h-3.53c-.88 0-1.72-.14-1.72-1.33v-5.94Zm6.77.26a.97.97 0 1 1-.97-.94.96.96 0 0 1 .97.94Zm-1.47 0a.5.5 0 0 0 1 0 .5.5 0 0 0-.5-.49.5.5 0 0 0-.5.49ZM38.9 64.01a38.67 38.67 0 0 1-.42 4.3h1.74v.7h-6.68v-.7h4.1a30.05 30.05 0 0 0 .39-3.53h-3.68v-.77ZM51.55 65.16v.87h-8.3v-.87ZM57.54 64.76a11.32 11.32 0 0 1 2.4 1.45 6.13 6.13 0 0 0 1.28-2.69h-3.6a7.75 7.75 0 0 1-2.54 2.34l-.54-.62a6.7 6.7 0 0 0 3.16-3.6l.9.16a9.16 9.16 0 0 1-.48.98h4.15c-.3 1.63-1.17 5.54-6.62 6.83l-.48-.72a8.13 8.13 0 0 0 4.2-2.05 11.1 11.1 0 0 0-2.38-1.5ZM73.9 62.7h-3.93v.57h3.09v3.01h-.97v.6h1.86v.63h-1.86v1.62c0 .59-.42.71-.78.71h-1.39l-.2-.75h1.37c.12 0 .23-.01.23-.23v-1.35h-6.03v-.63h6.03v-.6h-5.19v-3.01h3.1v-.56h-3.88v-.62h3.88v-.66h.74v.66h3.92Zm-5.62 6.82a8.54 8.54 0 0 0-1.52-1.46l.58-.48a10.2 10.2 0 0 1 1.58 1.45Zm.95-5.69h-2.37v.68h2.37Zm0 1.2h-2.37v.7h2.37Zm3.09-1.2h-2.35v.68h2.35Zm0 1.2h-2.35v.7h2.35ZM80.46 61.74v3.48h-2.75v4.62h-.74v-8.1Zm-2.75.66v.8h2.04v-.8Zm0 1.32v.84h2.04v-.84Zm7.3 5.3a.73.73 0 0 1-.84.82h-1.41l-.15-.75h1.34c.29 0 .32-.06.32-.32v-3.55h-2.8v-3.48H85Zm-2.83-6.63v.8h2.09v-.8Zm0 1.33v.83h2.09v-.83ZM95.17 64.99a10.63 10.63 0 0 1-2.38 1.48v.19h3.9v.7h-3.9v1.78a.68.68 0 0 1-.77.7h-1.7l-.15-.78 1.53.01c.29 0 .3-.07.3-.28v-1.43h-3.98v-.7h3.99v-.76h.4a5.43 5.43 0 0 0 1.51-.86h-4.4v-.67h5.64Zm-.91-2.11a13.26 13.26 0 0 0 .7-1.5l.81.26a9.42 9.42 0 0 1-.66 1.24h1.35v2h-.76v-1.33H89v1.33h-.77v-2h1.36a5.32 5.32 0 0 0-.65-1.2l.7-.27a4.95 4.95 0 0 1 .72 1.3l-.47.17Zm-2.05-.01a7.75 7.75 0 0 0-.7-1.29l.71-.28a7.05 7.05 0 0 1 .71 1.33ZM102.36 66.86a8.22 8.22 0 0 1-.9-1.47v4.45h-.74V65.4a7.32 7.32 0 0 1-1.14 2.35l-.29-.92a7.92 7.92 0 0 0 1.37-2.95H99.4v-.68h1.32v-1.78h.73v1.78h1.08v.68h-1.08v.44a6.15 6.15 0 0 0 1.3 1.85Zm-.2 2.3a6.93 6.93 0 0 0 2.54-1.28 6.49 6.49 0 0 1-1.3-2.38l.7-.2a5.66 5.66 0 0 0 1.12 2.05 5.83 5.83 0 0 0 1.16-2.06l.71.23a7.22 7.22 0 0 1-1.35 2.35 6.28 6.28 0 0 0 2.51 1.26l-.38.72a6.93 6.93 0 0 1-2.66-1.45 7.75 7.75 0 0 1-2.66 1.46Zm.25-4.26a5.09 5.09 0 0 0 1.61-1.5l.64.33a5.27 5.27 0 0 1-1.73 1.7Zm3.24-3.48v1h2.4v.68h-5.5v-.68h2.32v-1Zm2.06 4.01a7.27 7.27 0 0 1-1.83-1.72l.61-.35a6.77 6.77 0 0 0 1.72 1.48ZM5.38 54.55a4.32 4.32 0 0 0 1.19-2.2V37.78a19.16 19.16 0 0 0-4.2.1A10.29 10.29 0 0 0 0 39.01l1.1-3.48H17.11L16 39.33a3.27 3.27 0 0 0-2.07-1.57c-2.27-.08-3.57.01-3.57.01v14.59a4.34 4.34 0 0 0 1.19 2.2ZM97.94 54.55a4.31 4.31 0 0 0 1.19-2.2V37.77a18.96 18.96 0 0 0-4.2.1A10.14 10.14 0 0 0 92.55 39l1.1-3.48h16.01l-1.12 3.8a3.25 3.25 0 0 0-2.07-1.57c-2.27-.08-3.57.01-3.57.01v14.59a4.33 4.33 0 0 0 1.19 2.2ZM31.8 54.25a9.75 9.75 0 0 1-2.1-.99c-3.41-1.87-7.73-8.82-7.73-8.82 2.9-.24 5.34-1.1 5.24-4a2.74 2.74 0 0 0-2.38-2.62c-.67-.1-3.05-.05-3.05-.05v14.59a4.33 4.33 0 0 0 1.2 2.2H16.8a4.3 4.3 0 0 0 1.2-2.2V36.63a1.66 1.66 0 0 0-.71-1.1h7.87s5.72.05 5.72 4.76c0 0 .66 4-5.2 4.68 0 0 7.53 8.57 9.82 9.58a14.3 14.3 0 0 1-3.7-.3Z"/><path class="a" d="M39.68 43.78v-6.3a4.31 4.31 0 0 1 1.19-2.19h-5.68a4.3 4.3 0 0 1 1.19 2.2v14.87a4.31 4.31 0 0 1-1.2 2.19h5.7a4.32 4.32 0 0 1-1.2-2.2v-8.57ZM41.76 54.55a4.34 4.34 0 0 0 1.2-2.2V37.48a4.31 4.31 0 0 0-1.2-2.2h9.6s10.08.72 10.08 9.78-10.08 9.49-10.08 9.49ZM51.9 37.82c-.33-.29-5.26-.05-5.26-.05v14.3a30.5 30.5 0 0 0 5.12 0s5.72-1.52 5.91-6.53v-1.48c-.19-5-5.91-6.29-5.91-6.29"/><path class="a" d="M68.68 52.3c-2.53.06-2.67-.66-2.67-.66V45h2.67a3 3 0 0 1 2.24 1v-3.29h-4.9v-4.95h4.85c.96.05 2.07 1.33 2.07 1.33V35.3H60.92a4.3 4.3 0 0 1 1.2 2.19v14.87a4.33 4.33 0 0 1-1.2 2.2h13.05l1.34-4.06c-1.68 2.18-6.32 1.8-6.63 1.82Z"/><path class="a" d="M88.94 53.65a4.27 4.27 0 0 0 3.03.9V37.46a3.35 3.35 0 0 1 1.19-2.19H87.9a4.87 4.87 0 0 1 1.05 2.2v10.84L78.76 35.28h-4a4.3 4.3 0 0 1 1.18 2.2V52.34a4.34 4.34 0 0 1-1.19 2.2h5.4a4.3 4.3 0 0 1-1.2-2.2V41.27l8.33 10.7a14.07 14.07 0 0 0 1.66 1.68Z"/><path d="M468.1 444.63s7.62-.89 11-9.73c2.04-5.35 1.65-16.82 1.65-16.82h-25.29s-.39 11.48 1.66 16.83c3.38 8.83 10.99 9.72 10.99 9.72Z" style="fill:#ccc" transform="translate(-413.27 -417.88)"/><path class="a" d="M54.84 26.95h-.02a12.44 12.44 0 0 1-4.3-1.57 14.72 14.72 0 0 1-3.67-2.97 16.99 16.99 0 0 1-3.18-5.31c-.86-2.24-1.4-5.77-1.6-10.48C41.9 3.12 42 .22 42 .2V0h25.68v.2c0 .03.1 2.91-.05 6.42-.2 4.71-.75 8.24-1.6 10.47a16.99 16.99 0 0 1-3.18 5.32 14.71 14.71 0 0 1-3.67 2.96 12.43 12.43 0 0 1-4.3 1.58ZM42.4.4c-.03 1.54-.21 11.68 1.65 16.55a16.58 16.58 0 0 0 3.1 5.19 14.32 14.32 0 0 0 3.57 2.88 6.37 6.37 0 0 0 8.28 0 14.31 14.31 0 0 0 3.56-2.9 16.6 16.6 0 0 0 3.1-5.17C67.5 12.08 67.33 1.94 67.29.4Z"/><path d="m459.19 438.67 20.99-8.65a70.7 70.7 0 0 0 .55-8.22l-24.43 9.96s.74 4.41 2.88 6.91Z" style="fill:#ffcc01" transform="translate(-413.27 -417.88)"/><path class="a" d="m45.86 21.03-.1-.1c-2.16-2.52-2.9-6.83-2.93-7.02l-.03-.15L67.67 3.62v.3a71.27 71.27 0 0 1-.55 8.25l-.02.11Zm-2.6-7.02a16.55 16.55 0 0 0 2.72 6.54L66.73 12a68.1 68.1 0 0 0 .52-7.78ZM43.9 2.11a2.57 2.57 0 0 1 2.4 2.07v3.77s-.03 1.22.13 1.26a5.03 5.03 0 0 1-1.7-1.11 1.97 1.97 0 0 1-.62-1.68c-.08-1.87.1-3.5-.2-4.31ZM48.01 11.14a2.25 2.25 0 0 0 1.27-1.5V3.6a1.31 1.31 0 1 0-2.53 0v6.05a2.22 2.22 0 0 0 1.26 1.5ZM52.13 2.1a2.57 2.57 0 0 0-2.41 2.08v3.77s.04 1.22-.12 1.26a5.06 5.06 0 0 0 1.7-1.11 1.97 1.97 0 0 0 .61-1.68c.09-1.87-.1-3.5.22-4.31Z"/><path class="a" d="M47.19 18.37a.86.86 0 0 0 .05-.5l-1.12-2.74a3.78 3.78 0 0 0-.78.34 2.18 2.18 0 0 0-.36.4l-.06-.73 1.4-.58 1.6-.66.08.8a.67.67 0 0 0-.5-.13 6.98 6.98 0 0 0-.67.28l1.12 2.73a.88.88 0 0 0 .39.32ZM64.53 11.25a.86.86 0 0 0 .05-.5l-1.12-2.73a4.07 4.07 0 0 0-.78.34 2.05 2.05 0 0 0-.36.4l-.06-.74 1.4-.56 1.6-.66.08.8a.63.63 0 0 0-.5-.14c-.43.16-.67.28-.67.28l1.12 2.73a.87.87 0 0 0 .39.32ZM52.11 16.28a1.88 1.88 0 0 1-.47-.02 6.64 6.64 0 0 1-2.12-1.06c.52-.27.91-.62.67-1.16a.55.55 0 0 0-.65-.3c-.13.03-.57.22-.57.22l1.12 2.74a.9.9 0 0 0 .4.31l-1.16.48a.89.89 0 0 0 .05-.5l-1.2-2.95a.34.34 0 0 0-.22-.15l1.47-.6s1.08-.44 1.44.45c0 0 .43.7-.62 1.27a14.27 14.27 0 0 0 2.58 1.04 2.88 2.88 0 0 1-.72.23Z"/><path class="a" d="m52.78 13.71-.48-1.17a.9.9 0 0 1 .06-.5l-1.07.43a.87.87 0 0 1 .4.32l.57 1.4.57 1.39a.89.89 0 0 1-.06.5l1.06-.44a.84.84 0 0 1-.38-.32l-.49-1.18ZM54 15.57a.89.89 0 0 0 .06-.5l-.57-1.4-.57-1.39a.89.89 0 0 0-.4-.32l1.8-.74s1.95-.63 2.64 1.06-1.16 2.55-1.16 2.55Zm.62-3.91a6.8 6.8 0 0 0-1 .4l.58 1.39.52 1.28a6.2 6.2 0 0 0 .96-.4 1.6 1.6 0 0 0 .61-1.67l-.11-.28a1.51 1.51 0 0 0-1.6-.72"/><path class="a" d="M59.98 12.23c-.15.54-1.05.83-1.1.85-.48.2-.56.08-.56.08l-.5-1.24.5-.2a.6.6 0 0 1 .5.02l-.26-.62-.92.37-.38-.92.91-.38a.82.82 0 0 1 .5.1l-.3-.72-2.25.93a.85.85 0 0 1 .39.31l.57 1.4.57 1.39a.87.87 0 0 1-.05.5l1.06-.43 1.38-.57Z"/><path class="a" d="M62.77 11.78a.86.86 0 0 0 .64-.07l-.83-2.02-.49-1.18a.66.66 0 0 1 .06-.5l-.98.4a.97.97 0 0 1 .36.33l.57 1.4.27.64-2.92-1.66-.75.3a.85.85 0 0 1 .4.32l.57 1.4.57 1.39a.86.86 0 0 1-.06.5l1.02-.41a.9.9 0 0 1-.4-.32l-.48-1.18-.18-.43-.19-.47 2.38 1.37a2.85 2.85 0 0 0 .44.19ZM35.77 20.22a18.37 18.37 0 0 0 5.76 5.48l2.48-3.67a14.26 14.26 0 0 1-5.1-5.3l-.29 3.35Z"/><path class="a" d="M54.95 31.06c-2.79 0-11.41-.45-15.09-5.3l2.53-3.54c3.57 4.3 12.54 4.63 12.54 4.63s8.96-.34 12.53-4.63L70 25.75c-3.2 4.38-12.25 5.31-15.04 5.31Z"/><path class="a" d="M74.09 20.22a18.36 18.36 0 0 1-5.77 5.48l-2.48-3.67a14.31 14.31 0 0 0 5.1-5.29l.29 3.34Z"/><path class="d" d="m44.3 25.97-.08-.04a.75.75 0 0 0-.27-.92.35.35 0 0 0-.5.11c-.29.48.75 1.19.35 1.85a.71.71 0 0 1-1.02.17c-.24-.14-.34-.34-.43-.4a.12.12 0 0 0-.16.05l-.07-.05.3-.73.08.04a.88.88 0 0 0 .32.96.42.42 0 0 0 .6-.12c.1-.19.12-.33-.19-.89-.19-.34-.31-.6-.12-.92a.63.63 0 0 1 .9-.2c.2.11.3.33.38.38a.13.13 0 0 0 .18-.05l.07.05ZM45.57 27.76a.88.88 0 0 1-.97.27.72.72 0 0 1-.32-1.04.82.82 0 0 1 1.06-.55.63.63 0 0 1 .34.88l-1.07-.44c-.22.62 0 .88.23.98a.69.69 0 0 0 .68-.14Zm-.2-.7c.05-.17.11-.42-.16-.53-.2-.08-.37-.05-.55.24ZM47.14 28.26a.88.88 0 0 1-.94.36.72.72 0 0 1-.42-1.01.81.81 0 0 1 1-.65.64.64 0 0 1 .42.85l-1.1-.35c-.16.65.08.88.32.96a.68.68 0 0 0 .67-.2Zm-.26-.68c.03-.18.07-.43-.22-.52-.2-.06-.37 0-.52.3ZM47.08 28.8c.25 0 .28 0 .33-.19l.4-1.75c.03-.16.03-.23-.12-.26a.9.9 0 0 0-.1-.02v-.06l.6-.03.02.01-.35 1.52.6-.32c.06-.03.1-.07.1-.1s0-.08-.16-.12l.01-.04.75.17-.02.05c-.19-.04-.29-.06-.89.28l-.13.07.4.84a.58.58 0 0 0 .36.36v.06l-.8-.19.01-.05.07.02c.03 0 .08 0 .1-.05l-.06-.13-.34-.79h-.01l-.15.66c-.04.15.04.2.16.24l.07.01-.02.06-.85-.2ZM51.76 28.09l-.46-.05-.13 1.16c-.03.23-.04.32.3.37v.06l-.97-.12v-.05c.25.02.32 0 .35-.3L51 28l-.3-.04.01-.12.3.04c.03-.2.1-.87.77-.8.21.03.36.16.35.28a.15.15 0 0 1-.18.14c-.16-.02-.14-.3-.31-.32-.21-.03-.25.17-.27.3l-.05.43.46.05Z"/><path class="d" d="M53.4 28.93a.86.86 0 0 1-.9.82.83.83 0 0 1-.74-.94.82.82 0 0 1 .86-.81.8.8 0 0 1 .78.93Zm-.35.08c.04-.46-.13-.88-.47-.9-.23-.02-.45.16-.48.55-.02.27.02.97.47 1 .19 0 .45-.12.48-.65Z"/><path class="d" d="M53.68 28.53c0-.22-.06-.22-.13-.22a.6.6 0 0 0-.12 0v-.05c.18-.06.37-.12.56-.2l.01.02v.33c.18-.26.31-.33.45-.33a.18.18 0 0 1 .2.2c0 .1-.05.17-.14.17-.13 0-.17-.14-.26-.14s-.25.18-.26.3l-.02.84c0 .25.12.27.31.28v.06l-.9-.02v-.05c.2-.03.27-.04.27-.25ZM57.93 29.57l-1.08.12v-.07c.33-.06.33-.14.3-.42l-.2-1.86-.2.03c-.41.04-.5.12-.54.54h-.09l-.04-.63 2.1-.23.08.63-.08.01c-.13-.4-.24-.46-.65-.4l-.2.01.21 1.9c.03.26.08.32.4.3Z"/><path class="d" d="m60.28 29.2-.78.13v-.06c.17-.05.24-.08.2-.36l-.13-.73c-.05-.25-.15-.38-.35-.34a.56.56 0 0 0-.37.3l.16.89c.04.28.12.28.3.27v.06l-.8.13v-.05c.2-.06.23-.1.18-.36l-.3-1.74c-.02-.1-.03-.18-.2-.16a.28.28 0 0 0-.06.02l-.02-.06.5-.25h.02l.2 1.12a.65.65 0 0 1 .48-.4c.45-.07.53.37.56.52l.12.73c.05.27.09.28.28.28ZM61.66 27.2c-.04.03-.12.05-.14.2l-.21 1.62c-.08.53-.18.81-.45.88a.24.24 0 0 1-.32-.15.16.16 0 0 1 .14-.2 1.68 1.68 0 0 1 .28 0c.18-.05.21-.58.2-.64a4.5 4.5 0 0 0-.34-.45l-.63-.8a.22.22 0 0 0-.2-.07l-.02-.06.75-.17.02.06c-.09.02-.21.05-.2.15a.3.3 0 0 0 .07.12l.64.83.1-.88a1.6 1.6 0 0 0 .02-.26c-.01-.08-.08-.1-.2-.07v-.05l.48-.11ZM62.83 27.33c-.19-.34-.37-.36-.53-.32a.26.26 0 0 0-.2.31.3.3 0 0 0 .23.21l.46.12c.2.05.36.12.42.33a.51.51 0 0 1-.38.62c-.16.04-.34.02-.44.06a.08.08 0 0 0-.07.06l-.04.02-.17-.56.06-.02c.1.18.26.47.61.36a.27.27 0 0 0 .21-.34.32.32 0 0 0-.26-.21l-.24-.06c-.26-.06-.5-.14-.57-.4a.47.47 0 0 1 .37-.59 2 2 0 0 1 .35-.03.08.08 0 0 0 .05-.05l.04-.01.16.49ZM64.75 27.27a.88.88 0 0 1-.53.86c-.39.15-.76-.04-.95-.54a.81.81 0 0 1 .4-1.12.63.63 0 0 1 .85.4l-1.09.4c.28.6.61.65.84.56a.68.68 0 0 0 .41-.57Zm-.63-.38c-.08-.15-.2-.37-.48-.27-.2.07-.3.22-.24.55ZM65.05 27.7c.2-.1.24-.17.15-.36l-.74-1.62c-.07-.15-.11-.2-.25-.14l-.11.07-.02-.06c.16-.13.31-.25.47-.4h.01l.93 2.03c.1.2.16.2.36.12l.03.05-.8.37ZM66.22 25.43l-.4.22.57 1.02c.11.2.17.29.47.13l.03.05-.85.47-.03-.05c.21-.13.25-.2.11-.45l-.57-1.02-.27.15-.06-.1.27-.15c-.1-.19-.42-.77.16-1.1.19-.1.38-.1.44.03a.15.15 0 0 1-.06.21c-.14.08-.3-.16-.45-.07-.18.1-.1.28-.03.4l.21.37.4-.22ZM39.86 25.84l-.18-.13 2.68-3.68 1.93-.13.01.22-1.83.11Z"/><path class="d" d="M43.47 23.26c-.72-.6-1.1-.97-1.1-1.1h.22a.05.05 0 0 0 0-.02 6.32 6.32 0 0 0 1.02.95ZM69.98 25.77l-2.61-3.6-1.83-.11.01-.22 1.93.13 2.68 3.68Z"/><path class="d" d="m66.37 23.2-.13-.17a6.23 6.23 0 0 0 1-.95.05.05 0 0 0 0 .01h.22c0 .15-.37.52-1.09 1.1Z"/></svg>