{
	"asset":{
		"generator":"Khronos glTF Blender I/O v4.4.56",
		"version":"2.0"
	},
	"scene":0,
	"scenes":[
		{
			"name":"Scene",
			"nodes":[
				0,
				1,
				2,
				3,
				4,
				5,
				6
			]
		}
	],
	"nodes":[
		{
			"mesh":0,
			"name":"\u982d"
		},
		{
			"mesh":1,
			"name":"\u4f53",
			"translation":[
				0,
				-1.1246976852416992,
				0
			]
		},
		{
			"mesh":2,
			"name":"\u9854",
			"scale":[
				0.30002865195274353,
				0.20767080783843994,
				0.20767080783843994
			],
			"translation":[
				0,
				-0.24314391613006592,
				0.5231446027755737
			]
		},
		{
			"mesh":3,
			"name":"\u9f3b",
			"scale":[
				0.07774252444505692,
				0.05381103977560997,
				0.05381103977560997
			],
			"translation":[
				0,
				-0.16791753470897675,
				0.6707252860069275
			]
		},
		{
			"mesh":4,
			"name":"\u76ee",
			"scale":[
				0.05437217652797699,
				0.05381103977560997,
				0.05381103977560997
			],
			"translation":[
				0.17924751341342926,
				-0.08009199053049088,
				0.6122810244560242
			]
		},
		{
			"mesh":5,
			"name":"\u53e3",
			"scale":[
				1.4414803981781006,
				1.3483332395553589,
				1.4414803981781006
			],
			"translation":[
				0,
				-0.1511954665184021,
				0.6939614415168762
			]
		},
		{
			"mesh":6,
			"name":"\u5c3b\u5c3e",
			"scale":[
				0.1205102726817131,
				0.12561951577663422,
				0.12561951577663422
			],
			"translation":[
				0,
				-1.5162510871887207,
				-0.4419524073600769
			]
		}
	],
	"materials":[
		{
			"doubleSided":true,
			"name":"\u30de\u30c6\u30ea\u30a2\u30eb",
			"pbrMetallicRoughness":{
				"baseColorTexture":{
					"index":0
				},
				"metallicFactor":0,
				"roughnessFactor":0.5
			}
		},
		{
			"doubleSided":true,
			"name":"\u30de\u30c6\u30ea\u30a2\u30eb.001",
			"pbrMetallicRoughness":{
				"metallicFactor":0,
				"roughnessFactor":0.5
			}
		},
		{
			"doubleSided":true,
			"name":"\u30de\u30c6\u30ea\u30a2\u30eb.004",
			"pbrMetallicRoughness":{
				"baseColorFactor":[
					0.296136736869812,
					0.01370202749967575,
					0.09530752152204514,
					1
				],
				"metallicFactor":0,
				"roughnessFactor":0.5
			}
		},
		{
			"doubleSided":true,
			"name":"\u30de\u30c6\u30ea\u30a2\u30eb.006",
			"pbrMetallicRoughness":{
				"baseColorFactor":[
					0.296136736869812,
					0.01370202749967575,
					0.09530752152204514,
					1
				],
				"metallicFactor":0,
				"roughnessFactor":0.5
			}
		},
		{
			"doubleSided":true,
			"name":"\u30de\u30c6\u30ea\u30a2\u30eb.003",
			"pbrMetallicRoughness":{
				"baseColorFactor":[
					0,
					0,
					0,
					1
				],
				"metallicFactor":0,
				"roughnessFactor":0.5
			}
		},
		{
			"doubleSided":true,
			"name":"\u30de\u30c6\u30ea\u30a2\u30eb.005",
			"pbrMetallicRoughness":{
				"baseColorFactor":[
					0.296136736869812,
					0.01370202749967575,
					0.09530752152204514,
					1
				],
				"metallicFactor":0,
				"roughnessFactor":0.5
			}
		}
	],
	"meshes":[
		{
			"name":"Cube",
			"primitives":[
				{
					"attributes":{
						"POSITION":0,
						"NORMAL":1,
						"TEXCOORD_0":2
					},
					"indices":3,
					"material":0
				}
			]
		},
		{
			"name":"Cube.001",
			"primitives":[
				{
					"attributes":{
						"POSITION":4,
						"NORMAL":5,
						"TEXCOORD_0":6
					},
					"indices":7,
					"material":1
				}
			]
		},
		{
			"name":"\u7acb\u65b9\u4f53",
			"primitives":[
				{
					"attributes":{
						"POSITION":8,
						"NORMAL":9,
						"TEXCOORD_0":10
					},
					"indices":11,
					"material":2
				}
			]
		},
		{
			"name":"\u7acb\u65b9\u4f53.001",
			"primitives":[
				{
					"attributes":{
						"POSITION":12,
						"NORMAL":13,
						"TEXCOORD_0":14
					},
					"indices":11,
					"material":3
				}
			]
		},
		{
			"name":"\u7acb\u65b9\u4f53.002",
			"primitives":[
				{
					"attributes":{
						"POSITION":15,
						"NORMAL":16,
						"TEXCOORD_0":17
					},
					"indices":18,
					"material":4
				}
			]
		},
		{
			"name":"\u7acb\u65b9\u4f53.003",
			"primitives":[
				{
					"attributes":{
						"POSITION":19,
						"NORMAL":20
					},
					"indices":21,
					"material":5
				}
			]
		},
		{
			"name":"\u7acb\u65b9\u4f53.004",
			"primitives":[
				{
					"attributes":{
						"POSITION":22,
						"NORMAL":23,
						"TEXCOORD_0":24
					},
					"indices":11,
					"material":1
				}
			]
		}
	],
	"textures":[
		{
			"sampler":0,
			"source":0
		}
	],
	"images":[
		{
			"mimeType":"image/png",
			"name":"beer",
			"uri":"beer.png"
		}
	],
	"accessors":[
		{
			"bufferView":0,
			"componentType":5126,
			"count":2998,
			"max":[
				0.815919816493988,
				0.7817372679710388,
				0.6401310563087463
			],
			"min":[
				-0.815919816493988,
				-0.7156199216842651,
				-0.6401310563087463
			],
			"type":"VEC3"
		},
		{
			"bufferView":1,
			"componentType":5126,
			"count":2998,
			"type":"VEC3"
		},
		{
			"bufferView":2,
			"componentType":5126,
			"count":2998,
			"type":"VEC2"
		},
		{
			"bufferView":3,
			"componentType":5123,
			"count":16896,
			"type":"SCALAR"
		},
		{
			"bufferView":4,
			"componentType":5126,
			"count":2690,
			"max":[
				0.9831913113594055,
				0.6266636252403259,
				0.5226489901542664
			],
			"min":[
				-0.9831913113594055,
				-0.8077335357666016,
				-0.5226489901542664
			],
			"type":"VEC3"
		},
		{
			"bufferView":5,
			"componentType":5126,
			"count":2690,
			"type":"VEC3"
		},
		{
			"bufferView":6,
			"componentType":5126,
			"count":2690,
			"type":"VEC2"
		},
		{
			"bufferView":7,
			"componentType":5123,
			"count":15360,
			"type":"SCALAR"
		},
		{
			"bufferView":8,
			"componentType":5126,
			"count":441,
			"max":[
				0.839506208896637,
				0.839506208896637,
				0.839506208896637
			],
			"min":[
				-0.8395062685012817,
				-0.839506208896637,
				-0.839506208896637
			],
			"type":"VEC3"
		},
		{
			"bufferView":9,
			"componentType":5126,
			"count":441,
			"type":"VEC3"
		},
		{
			"bufferView":10,
			"componentType":5126,
			"count":441,
			"type":"VEC2"
		},
		{
			"bufferView":11,
			"componentType":5123,
			"count":2304,
			"type":"SCALAR"
		},
		{
			"bufferView":12,
			"componentType":5126,
			"count":441,
			"max":[
				0.839506208896637,
				0.839506208896637,
				0.839506208896637
			],
			"min":[
				-0.8395062685012817,
				-0.839506208896637,
				-0.839506208896637
			],
			"type":"VEC3"
		},
		{
			"bufferView":13,
			"componentType":5126,
			"count":441,
			"type":"VEC3"
		},
		{
			"bufferView":14,
			"componentType":5126,
			"count":441,
			"type":"VEC2"
		},
		{
			"bufferView":15,
			"componentType":5126,
			"count":882,
			"max":[
				0.839506208896637,
				0.839506208896637,
				0.839506208896637
			],
			"min":[
				-7.432860851287842,
				-0.839506208896637,
				-0.839506208896637
			],
			"type":"VEC3"
		},
		{
			"bufferView":16,
			"componentType":5126,
			"count":882,
			"type":"VEC3"
		},
		{
			"bufferView":17,
			"componentType":5126,
			"count":882,
			"type":"VEC2"
		},
		{
			"bufferView":18,
			"componentType":5123,
			"count":4608,
			"type":"SCALAR"
		},
		{
			"bufferView":19,
			"componentType":5126,
			"count":602,
			"max":[
				0.03235149383544922,
				-0.0013089843560010195,
				0.011690462939441204
			],
			"min":[
				-0.03160823509097099,
				-0.08473885804414749,
				-0.011659711599349976
			],
			"type":"VEC3"
		},
		{
			"bufferView":20,
			"componentType":5126,
			"count":602,
			"type":"VEC3"
		},
		{
			"bufferView":21,
			"componentType":5123,
			"count":3600,
			"type":"SCALAR"
		},
		{
			"bufferView":22,
			"componentType":5126,
			"count":441,
			"max":[
				0.839506208896637,
				0.839506208896637,
				0.839506208896637
			],
			"min":[
				-0.8395062685012817,
				-0.839506208896637,
				-0.839506208896637
			],
			"type":"VEC3"
		},
		{
			"bufferView":23,
			"componentType":5126,
			"count":441,
			"type":"VEC3"
		},
		{
			"bufferView":24,
			"componentType":5126,
			"count":441,
			"type":"VEC2"
		}
	],
	"bufferViews":[
		{
			"buffer":0,
			"byteLength":35976,
			"byteOffset":0,
			"target":34962
		},
		{
			"buffer":0,
			"byteLength":35976,
			"byteOffset":35976,
			"target":34962
		},
		{
			"buffer":0,
			"byteLength":23984,
			"byteOffset":71952,
			"target":34962
		},
		{
			"buffer":0,
			"byteLength":33792,
			"byteOffset":95936,
			"target":34963
		},
		{
			"buffer":0,
			"byteLength":32280,
			"byteOffset":129728,
			"target":34962
		},
		{
			"buffer":0,
			"byteLength":32280,
			"byteOffset":162008,
			"target":34962
		},
		{
			"buffer":0,
			"byteLength":21520,
			"byteOffset":194288,
			"target":34962
		},
		{
			"buffer":0,
			"byteLength":30720,
			"byteOffset":215808,
			"target":34963
		},
		{
			"buffer":0,
			"byteLength":5292,
			"byteOffset":246528,
			"target":34962
		},
		{
			"buffer":0,
			"byteLength":5292,
			"byteOffset":251820,
			"target":34962
		},
		{
			"buffer":0,
			"byteLength":3528,
			"byteOffset":257112,
			"target":34962
		},
		{
			"buffer":0,
			"byteLength":4608,
			"byteOffset":260640,
			"target":34963
		},
		{
			"buffer":0,
			"byteLength":5292,
			"byteOffset":265248,
			"target":34962
		},
		{
			"buffer":0,
			"byteLength":5292,
			"byteOffset":270540,
			"target":34962
		},
		{
			"buffer":0,
			"byteLength":3528,
			"byteOffset":275832,
			"target":34962
		},
		{
			"buffer":0,
			"byteLength":10584,
			"byteOffset":279360,
			"target":34962
		},
		{
			"buffer":0,
			"byteLength":10584,
			"byteOffset":289944,
			"target":34962
		},
		{
			"buffer":0,
			"byteLength":7056,
			"byteOffset":300528,
			"target":34962
		},
		{
			"buffer":0,
			"byteLength":9216,
			"byteOffset":307584,
			"target":34963
		},
		{
			"buffer":0,
			"byteLength":7224,
			"byteOffset":316800,
			"target":34962
		},
		{
			"buffer":0,
			"byteLength":7224,
			"byteOffset":324024,
			"target":34962
		},
		{
			"buffer":0,
			"byteLength":7200,
			"byteOffset":331248,
			"target":34963
		},
		{
			"buffer":0,
			"byteLength":5292,
			"byteOffset":338448,
			"target":34962
		},
		{
			"buffer":0,
			"byteLength":5292,
			"byteOffset":343740,
			"target":34962
		},
		{
			"buffer":0,
			"byteLength":3528,
			"byteOffset":349032,
			"target":34962
		}
	],
	"samplers":[
		{
			"magFilter":9729,
			"minFilter":9987
		}
	],
	"buffers":[
		{
			"byteLength":352560,
			"uri":"beer.bin"
		}
	]
}
