{
	"asset":{
		"generator":"Khronos glTF Blender I/O v4.4.56",
		"version":"2.0"
	},
	"scene":0,
	"scenes":[
		{
			"name":"Scene",
			"nodes":[
				0,
				1,
				2,
				3
			]
		}
	],
	"nodes":[
		{
			"mesh":0,
			"name":"\u4f53"
		},
		{
			"mesh":1,
			"name":"\u80f8\u3073\u308c",
			"rotation":[
				0.032427992671728134,
				-0.2112012654542923,
				0.14825719594955444,
				0.9655891060829163
			],
			"scale":[
				0.11155237257480621,
				0.28941610455513,
				0.28941610455513
			],
			"translation":[
				0.791560709476471,
				0.2019413411617279,
				0.16546189785003662
			]
		},
		{
			"mesh":2,
			"name":"\u5c3e\u3073\u308c",
			"rotation":[
				0.10875599831342697,
				0,
				0,
				0.9940685629844666
			],
			"scale":[
				0.12615752220153809,
				0.3273082971572876,
				0.3273082971572876
			],
			"translation":[
				0.015006632544100285,
				0.2970617711544037,
				-0.9374883770942688
			]
		},
		{
			"mesh":3,
			"name":"\u76ee",
			"rotation":[
				0.410695880651474,
				0.08991338312625885,
				-0.18211789429187775,
				0.8888630867004395
			],
			"scale":[
				0.17551283538341522,
				0.03033478930592537,
				0.17551283538341522
			],
			"translation":[
				0.334676057100296,
				0.47699373960494995,
				0.5777468681335449
			]
		}
	],
	"materials":[
		{
			"doubleSided":true,
			"name":"\u30de\u30c6\u30ea\u30a2\u30eb",
			"pbrMetallicRoughness":{
				"baseColorFactor":[
					0.02994731068611145,
					0.8006302714347839,
					0.15557751059532166,
					1
				],
				"metallicFactor":0,
				"roughnessFactor":0.5
			}
		},
		{
			"doubleSided":true,
			"name":"\u30de\u30c6\u30ea\u30a2\u30eb.001",
			"pbrMetallicRoughness":{
				"baseColorFactor":[
					0,
					0,
					0,
					1
				],
				"metallicFactor":0,
				"roughnessFactor":0.5
			}
		}
	],
	"meshes":[
		{
			"name":"Cube",
			"primitives":[
				{
					"attributes":{
						"POSITION":0,
						"NORMAL":1,
						"TEXCOORD_0":2
					},
					"indices":3,
					"material":0
				}
			]
		},
		{
			"name":"\u7acb\u65b9\u4f53",
			"primitives":[
				{
					"attributes":{
						"POSITION":4,
						"NORMAL":5,
						"TEXCOORD_0":6
					},
					"indices":7,
					"material":0
				}
			]
		},
		{
			"name":"\u7acb\u65b9\u4f53.001",
			"primitives":[
				{
					"attributes":{
						"POSITION":8,
						"NORMAL":9,
						"TEXCOORD_0":10
					},
					"indices":11,
					"material":0
				}
			]
		},
		{
			"name":"\u7403",
			"primitives":[
				{
					"attributes":{
						"POSITION":12,
						"NORMAL":13,
						"TEXCOORD_0":14
					},
					"indices":15,
					"material":1
				}
			]
		}
	],
	"accessors":[
		{
			"bufferView":0,
			"componentType":5126,
			"count":2161,
			"max":[
				0.8015922904014587,
				0.8015923500061035,
				0.9950158596038818
			],
			"min":[
				-0.8015922904014587,
				-0.8015922904014587,
				-0.8015922904014587
			],
			"type":"VEC3"
		},
		{
			"bufferView":1,
			"componentType":5126,
			"count":2161,
			"type":"VEC3"
		},
		{
			"bufferView":2,
			"componentType":5126,
			"count":2161,
			"type":"VEC2"
		},
		{
			"bufferView":3,
			"componentType":5123,
			"count":12288,
			"type":"SCALAR"
		},
		{
			"bufferView":4,
			"componentType":5126,
			"count":250,
			"max":[
				0.7056310772895813,
				2.3669028282165527,
				2.7552342414855957
			],
			"min":[
				-14.85423469543457,
				-0.7056311368942261,
				-1.2593718767166138
			],
			"type":"VEC3"
		},
		{
			"bufferView":5,
			"componentType":5126,
			"count":250,
			"type":"VEC3"
		},
		{
			"bufferView":6,
			"componentType":5126,
			"count":250,
			"type":"VEC2"
		},
		{
			"bufferView":7,
			"componentType":5123,
			"count":1152,
			"type":"SCALAR"
		},
		{
			"bufferView":8,
			"componentType":5126,
			"count":197,
			"max":[
				0.575251579284668,
				0.6862625479698181,
				0.912930428981781
			],
			"min":[
				-0.580883264541626,
				-0.6862625479698181,
				-1.126700520515442
			],
			"type":"VEC3"
		},
		{
			"bufferView":9,
			"componentType":5126,
			"count":197,
			"type":"VEC3"
		},
		{
			"bufferView":10,
			"componentType":5126,
			"count":197,
			"type":"VEC2"
		},
		{
			"bufferView":11,
			"componentType":5123,
			"count":960,
			"type":"SCALAR"
		},
		{
			"bufferView":12,
			"componentType":5126,
			"count":1118,
			"max":[
				0.9999997019767761,
				1,
				0.9999993443489075
			],
			"min":[
				-4.194122314453125,
				-13.047183990478516,
				-1.0388849973678589
			],
			"type":"VEC3"
		},
		{
			"bufferView":13,
			"componentType":5126,
			"count":1118,
			"type":"VEC3"
		},
		{
			"bufferView":14,
			"componentType":5126,
			"count":1118,
			"type":"VEC2"
		},
		{
			"bufferView":15,
			"componentType":5123,
			"count":5760,
			"type":"SCALAR"
		}
	],
	"bufferViews":[
		{
			"buffer":0,
			"byteLength":25932,
			"byteOffset":0,
			"target":34962
		},
		{
			"buffer":0,
			"byteLength":25932,
			"byteOffset":25932,
			"target":34962
		},
		{
			"buffer":0,
			"byteLength":17288,
			"byteOffset":51864,
			"target":34962
		},
		{
			"buffer":0,
			"byteLength":24576,
			"byteOffset":69152,
			"target":34963
		},
		{
			"buffer":0,
			"byteLength":3000,
			"byteOffset":93728,
			"target":34962
		},
		{
			"buffer":0,
			"byteLength":3000,
			"byteOffset":96728,
			"target":34962
		},
		{
			"buffer":0,
			"byteLength":2000,
			"byteOffset":99728,
			"target":34962
		},
		{
			"buffer":0,
			"byteLength":2304,
			"byteOffset":101728,
			"target":34963
		},
		{
			"buffer":0,
			"byteLength":2364,
			"byteOffset":104032,
			"target":34962
		},
		{
			"buffer":0,
			"byteLength":2364,
			"byteOffset":106396,
			"target":34962
		},
		{
			"buffer":0,
			"byteLength":1576,
			"byteOffset":108760,
			"target":34962
		},
		{
			"buffer":0,
			"byteLength":1920,
			"byteOffset":110336,
			"target":34963
		},
		{
			"buffer":0,
			"byteLength":13416,
			"byteOffset":112256,
			"target":34962
		},
		{
			"buffer":0,
			"byteLength":13416,
			"byteOffset":125672,
			"target":34962
		},
		{
			"buffer":0,
			"byteLength":8944,
			"byteOffset":139088,
			"target":34962
		},
		{
			"buffer":0,
			"byteLength":11520,
			"byteOffset":148032,
			"target":34963
		}
	],
	"buffers":[
		{
			"byteLength":159552,
			"uri":"fish.bin"
		}
	]
}
